<svg xmlns="http://www.w3.org/2000/svg" width="256" height="256"><path fill-opacity=".016" d="M0 128.004v128.004l128.25-.254 128.25-.254.254-127.75L257.008 0H0v128.004m.485.496c0 70.4.119 99.053.265 63.672.146-35.38.146-92.98 0-128C.604 29.153.485 58.1.485 128.5" fill="#1976D2" fill-rule="evenodd"/><path fill-opacity=".454" d="M2 16.714c0 .392 8.936 9.505 19.858 20.25S62.5 76.975 87.903 102s46.617 45.65 47.142 45.833c.6.21.955-24.211.955-65.75V16H69c-36.85 0-67 .321-67 .714M218.5 49.98l-34 .52-.275 76.5c-.152 42.075-.029 77.518.272 78.763l.548 2.263 35.227-.263 35.228-.263.256-77.89c.249-75.792.067-81.368-2.628-80.38-.346.126-15.928.464-34.628.75M33.46 107.25c-.263.688-.361 31.175-.219 67.75l.259 66.5 69.25.257c38.088.141 69.25-.094 69.25-.522 0-.707-28.96-29.44-108.306-107.457-15.507-15.247-28.546-27.735-28.975-27.75-.43-.015-.997.535-1.259 1.222" fill="#1976D2" fill-rule="evenodd"/><path fill-opacity=".234" d="M186.667 51.667c-.367.366-.667 35.241-.667 77.5V206h32.418c17.83 0 33.13.273 34 .607 1.434.55 1.582-6.687 1.582-77.5V51h-33.333c-18.334 0-33.634.3-34 .667M35 174.396V241h67.5c37.125 0 67.5-.136 67.5-.303 0-.353-27.79-27.911-82.483-81.792-21.441-21.123-40.353-39.793-42.027-41.49-1.674-1.696-4.719-4.555-6.767-6.353L35 107.793v66.603" fill="#1976D2" fill-rule="evenodd"/><path fill-opacity=".314" d="M35 174.941V241h67c36.85 0 67-.212 67-.472 0-.435-22.54-22.79-58-57.525-7.975-7.812-27.775-27.341-44-43.398-16.225-16.057-30.062-29.538-30.75-29.959-.995-.608-1.25 12.707-1.25 65.295" fill="#1976D2" fill-rule="evenodd"/></svg>