<svg width="150" height="38" xmlns="http://www.w3.org/2000/svg" version="1.1" xml:space="preserve">
 <g>
  <title>Layer 1</title>
  <g id="svg_29" stroke="null">
   <g transform="matrix(1 0 0 1.20698 37.53 15.4354)" id="akOo0jUK1BPKcxQAvlt6d" stroke="null">
    <path vector-effect="non-scaling-stroke" d="m0.79942,0.38256c-1.7688,0 -2.92,0.788 -3.1023,2.1497l6.2067,0c-0.1869,-1.3423 -1.3666,-2.1497 -3.1044,-2.1497z" stroke-linecap=" butt" stroke-dasharray=" none" stroke-dashoffset="0" stroke-linejoin=" miter" stroke-miterlimit="4" fill=" rgb(255,255,255)" fill-rule=" nonzero" id="svg_3" stroke=" none"/>
   </g>
   <path vector-effect="non-scaling-stroke" d="m148.34632,4.76402l-147.07648,0.05984l0.00973,29.06673l147.07575,-0.05914l-0.009,-29.06743zm-120.902,21.00785l-4.5001,0l0,-7.2147c0,-1.66852 -0.9629,-2.36096 -2.2354,-2.36096c-1.1168,0 -1.9551,0.4887 -3.1335,1.95277l0,7.62289l-4.4995,0l-0.0045,-11.8362l4.5007,0l0,1.69483c1.2622,-1.28664 2.9335,-1.97884 4.6552,-1.92778c2.2342,0 5.2139,1.05079 5.2158,4.54306l0.0013,7.5261l0,-0.00001zm12.3874,-1.98197c1.8001,0 3.1965,-0.43813 5.3067,-1.69701l0,2.3367c-1.9739,1.11307 -4.1746,1.65271 -6.3923,1.56738c-5.0276,0 -8.287,-2.40949 -8.2889,-6.10754c0,-3.61984 3.1328,-6.18889 7.5401,-6.18949c4.1588,0 7.6044,2.43568 7.3883,6.74941l-10.2726,0.0035c0.1557,2.10521 1.8941,3.33705 4.7181,3.33632l0.0006,0.00072l0,0.00001zm15.8,2.20068l-2.5132,0l-6.6148,-12.06481l4.8109,0l3.0427,6.51996l3.0706,-6.52286l4.7791,0l-6.5753,12.0677l0,0.00001zm23.1228,-1.08724c-1.3326,0.64477 -2.763,1.01084 -4.2179,1.0794c-1.4924,0 -2.2062,-0.38406 -2.5144,-1.33371c-1.4453,0.87313 -3.0673,1.33323 -4.7169,1.33793c-2.2964,0 -4.0036,-1.41059 -4.0043,-2.90024c0,-2.82408 2.5132,-3.38967 8.5005,-4.93279c0.0928,-1.10426 -0.5282,-1.97691 -2.4833,-1.9763c-1.9033,0.04055 -3.7476,0.73251 -5.2755,1.9792l0,-3.02999c1.9474,-0.97403 4.0662,-1.46563 6.206,-1.4398c3.6014,0 6.0529,0.99744 6.0536,3.59208l0,5.39156c-0.0155,0.11152 -0.007,0.22546 0.0249,0.33264c0.0319,0.10718 0.0862,0.2047 0.1587,0.28473c0.0724,0.0799 0.161,0.14013 0.2584,0.17574c0.0975,0.03549 0.2013,0.0455 0.3029,0.02897c0.6127,-0.05287 1.2017,-0.2834 1.7066,-0.66818l0.0007,2.07877l0,-0.00001zm12.1343,-8.45281l-5.2139,0l0,4.87799c0,1.15544 0.8073,1.90002 2.2063,1.8993c1.0351,-0.01279 2.0579,-0.24888 3.0102,-0.69461l0,2.69506c-1.3401,0.49426 -2.7444,0.74651 -4.1581,0.74663c-2.9791,0 -5.5559,-1.12707 -5.5565,-4.43913l0,-5.08378l-2.0486,0l0,-0.7167l5.988,-5.54835l0.5587,0l0,3.72461l5.2139,0l0,2.53899l0,-0.00001zm9.7179,9.52147c-4.6857,0 -8.1015,-2.43507 -8.1021,-6.15883c0,-4.03082 3.8777,-6.13747 8.0982,-6.13892c3.5045,0 8.0395,1.61433 8.0395,6.15883c0,4.69839 -4.87,6.13747 -8.0356,6.13892zm36.9966,-0.24574l-4.501,0l0,-6.9319c0,-1.69483 -0.993,-2.64448 -2.639,-2.64376c-0.688,0.02619 -1.362,0.21955 -1.973,0.56607c-0.612,0.34652 -1.146,0.83764 -1.564,1.43799l0,7.57437l-4.501,0l0,-7.00806c0,-1.92344 -1.397,-2.5647 -2.732,-2.5647c-1.295,0.05516 -2.525,0.64247 -3.444,1.64571l0,7.93212l-4.5,0l-0.004,-11.83548l4.5,0l0,1.51608c0.733,-0.57235 1.538,-1.02279 2.39,-1.33648c0.832,-0.29197 1.702,-0.43113 2.576,-0.41182c2.482,0 4.159,0.82002 5.152,2.51413c1.862,-1.77244 3.504,-2.51763 5.645,-2.51908c3.258,0 5.587,1.76967 5.588,4.46545l0.007,7.59936z" stroke-linecap=" butt" stroke-dasharray=" none" stroke-dashoffset="0" stroke-linejoin=" miter" stroke-miterlimit="4" fill=" rgb(255,255,255)" fill-rule=" nonzero" id="svg_5" stroke=" none"/>
   <g transform="matrix(1 0 0 1.20698 69.06 21.0599)" id="1QREaRWtKENsk9snBY6VJ" stroke="null">
    <path vector-effect="non-scaling-stroke" d="m-1.17568,1.97286c0.0465,0.3121 0.2249,0.5954 0.4972,0.7899c0.2723,0.1945 0.6172,0.2849 0.9615,0.2519c0.8904,-0.0191 1.7545,-0.2783 2.4827,-0.7449l0,-2.361c-2.6689,0.6593 -3.9414,1.0855 -3.9414,2.0641z" stroke-linecap=" butt" stroke-dasharray=" none" stroke-dashoffset="0" stroke-linejoin=" miter" stroke-miterlimit="4" fill=" rgb(255,255,255)" fill-rule=" nonzero" id="svg_6" stroke=" none"/>
   </g>
   <g transform="matrix(1 0 0 1.20698 99.78 18.0425)" id="leitu3wPdxqqXC7APjRN5" stroke="null">
    <path vector-effect="non-scaling-stroke" d="m0.82672,-1.99345c-1.9558,0 -3.2899,1.0436 -3.2893,3.2559c0,2.531 1.584,3.2753 3.2912,3.2747c2.1107,0 3.2277,-1.1923 3.2257,-3.3408c-0.001,-1.9148 -0.963,-3.1898 -3.2276,-3.1898z" stroke-linecap=" butt" stroke-dasharray=" none" stroke-dashoffset="0" stroke-linejoin=" miter" stroke-miterlimit="4" fill=" rgb(255,255,255)" fill-rule=" nonzero" id="svg_7" stroke=" none"/>
   </g>
  </g>
 </g>

</svg>