<?xml version="1.0" encoding="UTF-8" standalone="no"?>
<!-- Created with Inkscape (http://www.inkscape.org/) -->

<svg
   width="55.631229mm"
   height="7.7059898mm"
   viewBox="0 0 55.631229 7.7059898"
   version="1.1"
   id="svg1"
   xml:space="preserve"
   xmlns:inkscape="http://www.inkscape.org/namespaces/inkscape"
   xmlns:sodipodi="http://sodipodi.sourceforge.net/DTD/sodipodi-0.dtd"
   xmlns="http://www.w3.org/2000/svg"
   xmlns:svg="http://www.w3.org/2000/svg"><sodipodi:namedview
     id="namedview1"
     pagecolor="#000000"
     bordercolor="#000000"
     borderopacity="0.25"
     inkscape:showpageshadow="2"
     inkscape:pageopacity="0.0"
     inkscape:pagecheckerboard="0"
     inkscape:deskcolor="#d1d1d1"
     inkscape:document-units="mm" /><defs
     id="defs1" /><g
     inkscape:label="Слой 1"
     inkscape:groupmode="layer"
     id="layer1"
     transform="translate(-46.247823,-223.58119)"><path
       id="rect1-6"
       style="fill:#ffffff;stroke:none;stroke-width:0.467403;stroke-miterlimit:100;paint-order:fill markers stroke"
       d="m 46.247823,223.58118 v 7.70599 h 55.631227 v -7.70599 z m 19.929533,1.93529 h 0.770496 c -0.0056,0.11853 -0.03264,0.22336 -0.08062,0.31367 -0.04516,0.0875 -0.09024,0.15511 -0.135392,0.20309 -0.04515,0.0452 -0.128242,0.0889 -0.249597,0.13126 -0.118533,0.0395 -0.20476,0.0647 -0.258382,0.076 -0.0508,0.0113 -0.155115,0.0299 -0.313159,0.0553 -0.04233,0.008 -0.07378,0.0142 -0.09354,0.0171 -0.383821,0.0649 -0.598216,0.251 -0.643371,0.55862 h 0.01292 c 0.149577,-0.27093 0.421894,-0.40669 0.817004,-0.40669 0.2794,0 0.513711,0.10483 0.7028,0.31368 0.19191,0.20602 0.287837,0.47257 0.287837,0.79995 0,0.33584 -0.108767,0.60947 -0.326078,0.82114 -0.217311,0.20884 -0.498015,0.31315 -0.842326,0.31315 -0.380999,0 -0.677685,-0.12371 -0.889351,-0.37207 -0.186267,-0.21448 -0.279053,-0.58587 -0.279053,-1.11362 0,-0.38382 0.05923,-0.69991 0.177767,-0.94827 0.118533,-0.25117 0.320087,-0.43019 0.605131,-0.53743 0.08749,-0.0339 0.186556,-0.0582 0.296623,-0.0724 0.110066,-0.0169 0.200229,-0.0337 0.270784,-0.0506 0.07056,-0.0198 0.127166,-0.0538 0.169499,-0.1018 z m -18.779216,0.11885 h 1.011825 l 0.326078,0.88057 c 0.06491,0.17498 0.113928,0.34823 0.147795,0.52038 0.04233,-0.21167 0.08924,-0.38491 0.140043,-0.52038 l 0.326078,-0.88057 h 1.011308 l -1.147217,2.46394 c -0.08467,0.18344 -0.205758,0.33415 -0.363802,0.45268 -0.155222,0.11571 -0.306447,0.17363 -0.453202,0.17363 -0.09031,0 -0.203014,-0.0115 -0.338481,-0.0341 -0.132644,-0.0198 -0.21573,-0.0405 -0.249597,-0.0631 v -0.72398 c 0.01976,0.0169 0.06484,0.0363 0.135392,0.0589 0.07338,0.0198 0.142312,0.03 0.207223,0.03 0.06773,0 0.126967,-0.0186 0.177767,-0.0553 0.0508,-0.0395 0.07648,-0.0943 0.07648,-0.16484 0,-0.048 -0.01415,-0.10197 -0.04237,-0.16123 z m 5.799646,0 h 0.745175 v 0.58395 h -0.745175 z m 0.973584,0 h 0.74104 v 0.58395 h -0.74104 z m 9.012887,0.76636 c 0.561621,0 0.906012,0.13525 1.033012,0.40618 0.03951,0.0819 0.05891,0.21447 0.05891,0.39791 0,0.0875 -0.0013,0.21748 -0.0041,0.38964 -0.0028,0.16933 -0.0041,0.31297 -0.0041,0.4315 0,0.29069 0.03093,0.49852 0.09302,0.6227 h -0.84646 c -0.01975,-0.0734 -0.03128,-0.14152 -0.03411,-0.20361 -0.183444,0.18345 -0.415927,0.27544 -0.698149,0.27544 -0.248355,0 -0.443349,-0.0606 -0.58446,-0.1819 -0.138289,-0.12136 -0.207223,-0.28936 -0.207223,-0.50385 0,-0.11006 0.02254,-0.20599 0.0677,-0.28783 0.04516,-0.0819 0.09024,-0.14422 0.135392,-0.18656 0.04798,-0.0451 0.12844,-0.0845 0.241329,-0.11834 0.112888,-0.0367 0.193351,-0.0592 0.241329,-0.0677 0.04798,-0.008 0.141281,-0.0226 0.279569,-0.0424 0.02258,-0.003 0.03935,-0.006 0.05064,-0.009 0.01411,-0.003 0.04818,-0.005 0.101803,-0.008 0.05362,-0.006 0.09425,-0.0114 0.122473,-0.0171 0.03104,-0.006 0.06642,-0.0153 0.105936,-0.0295 0.04233,-0.0141 0.07326,-0.0353 0.09302,-0.0636 0.01976,-0.0282 0.02946,-0.0623 0.02946,-0.1018 0,-0.127 -0.09148,-0.19017 -0.274919,-0.19017 -0.1016,0 -0.174986,0.0155 -0.220142,0.0465 -0.04516,0.031 -0.07477,0.089 -0.08888,0.17363 h -0.783415 c 0.01976,-0.48824 0.384064,-0.73226 1.09244,-0.73226 z m 5.304586,0 c 0.352777,0 0.638729,0.10563 0.858862,0.3173 0.220133,0.21166 0.330212,0.48843 0.330212,0.82992 0,0.34431 -0.111391,0.62502 -0.334346,0.84233 -0.222955,0.21449 -0.510736,0.32142 -0.863513,0.32142 -0.3556,0 -0.644692,-0.10693 -0.867648,-0.32142 -0.222955,-0.21449 -0.334346,-0.49257 -0.334346,-0.83406 0,-0.34149 0.111391,-0.61957 0.334346,-0.83406 0.225778,-0.21449 0.518011,-0.32143 0.876433,-0.32143 z m 9.960632,0 c 0.352777,0 0.639246,0.10563 0.859379,0.3173 0.220133,0.21166 0.330213,0.48843 0.330213,0.82992 0,0.34431 -0.111392,0.62502 -0.334347,0.84233 -0.222955,0.21449 -0.510736,0.32142 -0.863513,0.32142 -0.355599,0 -0.644692,-0.10693 -0.867647,-0.32142 -0.222956,-0.21449 -0.334864,-0.49257 -0.334864,-0.83406 0,-0.34149 0.111908,-0.61957 0.334864,-0.83406 0.225777,-0.21449 0.517494,-0.32143 0.875915,-0.32143 z m -24.396444,0.008 c 0.366889,0 0.659122,0.11453 0.876433,0.34313 0.220133,0.2286 0.330212,0.53578 0.330212,0.92243 v 0.0636 h -1.608687 c 0.0056,0.13829 0.04496,0.24574 0.118339,0.32194 0.0762,0.0762 0.179203,0.11421 0.309025,0.11421 0.155222,0 0.272378,-0.0606 0.3514,-0.1819 h 0.782898 c -0.06491,0.23142 -0.20592,0.40912 -0.42323,0.5333 -0.214489,0.12418 -0.450112,0.18603 -0.706934,0.18603 -0.355599,0 -0.650457,-0.0999 -0.884701,-0.30024 -0.234244,-0.20037 -0.351399,-0.47714 -0.351399,-0.82992 0,-0.34149 0.112703,-0.62219 0.33848,-0.84232 0.2286,-0.22014 0.51821,-0.33022 0.868164,-0.33022 z m 6.760311,0 c 0.285044,0 0.514108,0.10746 0.686263,0.32195 0.174978,0.21166 0.262,0.49237 0.262,0.84232 0,0.34431 -0.08309,0.61925 -0.249597,0.82528 -0.166511,0.2032 -0.389294,0.30489 -0.668693,0.30489 -0.242711,0 -0.451858,-0.0959 -0.626836,-0.28784 v 0.93534 h -0.83354 v -2.88716 h 0.804085 v 0.23719 c 0.149577,-0.19473 0.358208,-0.29197 0.626318,-0.29197 z m 12.924793,0 c 0.366888,0 0.658605,0.11453 0.875915,0.34313 0.220133,0.2286 0.330213,0.53578 0.330213,0.92243 v 0.0636 h -1.608688 c 0.0056,0.13829 0.04548,0.24574 0.118856,0.32194 0.0762,0.0762 0.179203,0.11421 0.309025,0.11421 0.155222,0 0.272378,-0.0606 0.3514,-0.1819 h 0.782898 c -0.06491,0.23142 -0.205919,0.40912 -0.42323,0.5333 -0.214489,0.12418 -0.450112,0.18603 -0.706934,0.18603 -0.355599,0 -0.650456,-0.0999 -0.8847,-0.30024 -0.234244,-0.20037 -0.3514,-0.47714 -0.3514,-0.82992 0,-0.34149 0.112703,-0.62219 0.338481,-0.84232 0.228599,-0.22014 0.518209,-0.33022 0.868164,-0.33022 z m 11.734684,0 c 0.285044,0 0.513591,0.10746 0.685746,0.32195 0.174978,0.21166 0.262517,0.49237 0.262517,0.84232 0,0.34431 -0.0836,0.61925 -0.250114,0.82528 -0.166511,0.2032 -0.389294,0.30489 -0.668693,0.30489 -0.242711,0 -0.451341,-0.0959 -0.626319,-0.28784 v 0.93534 h -0.834057 v -2.88716 h 0.804085 v 0.23719 c 0.149577,-0.19473 0.358724,-0.29197 0.626835,-0.29197 z m 2.416907,0 c 0.366888,0 0.659121,0.11453 0.876432,0.34313 0.220133,0.2286 0.330212,0.53578 0.330212,0.92243 v 0.0636 h -1.608687 c 0.0056,0.13829 0.04548,0.24574 0.118856,0.32194 0.0762,0.0762 0.179203,0.11421 0.309025,0.11421 0.155222,0 0.271861,-0.0606 0.350883,-0.1819 h 0.783415 c -0.06491,0.23142 -0.20592,0.40912 -0.42323,0.5333 -0.214489,0.12418 -0.450112,0.18603 -0.706934,0.18603 -0.355599,0 -0.650456,-0.0999 -0.8847,-0.30024 -0.234244,-0.20037 -0.3514,-0.47714 -0.3514,-0.82992 0,-0.34149 0.112703,-0.62219 0.33848,-0.84232 0.2286,-0.22014 0.517693,-0.33022 0.867648,-0.33022 z m 6.053894,0 c 0.366888,0 0.659121,0.11453 0.876432,0.34313 0.220133,0.2286 0.330212,0.53578 0.330212,0.92243 v 0.0636 h -1.608687 c 0.0056,0.13829 0.04496,0.24574 0.118339,0.32194 0.0762,0.0762 0.179203,0.11421 0.309025,0.11421 0.155222,0 0.272378,-0.0606 0.3514,-0.1819 h 0.783415 c -0.06491,0.23142 -0.206436,0.40912 -0.423747,0.5333 -0.214489,0.12418 -0.450112,0.18603 -0.706934,0.18603 -0.355599,0 -0.650456,-0.0999 -0.8847,-0.30024 -0.234244,-0.20037 -0.3514,-0.47714 -0.3514,-0.82992 0,-0.34149 0.11322,-0.62219 0.338997,-0.84232 0.2286,-0.22014 0.517693,-0.33022 0.867648,-0.33022 z m -43.654183,0.0548 h 0.834057 v 0.47439 c 0,0.14675 0.02254,0.24976 0.0677,0.30902 0.04798,0.0564 0.123987,0.0847 0.228409,0.0847 0.09031,0 0.169462,-0.0225 0.237195,-0.0677 v -0.80047 h 0.834058 v 2.18488 h -0.77463 v -0.85938 c -0.239888,0.0847 -0.4645,0.12661 -0.673344,0.12661 -0.502354,0 -0.753442,-0.29041 -0.753442,-0.87178 z m 5.156274,0 h 2.226738 v 0.63097 h -0.698666 v 1.55391 h -0.829406 v -1.55391 h -0.698666 z m 14.528829,0 h 0.834058 v 0.47439 c 0,0.14675 0.02254,0.24976 0.0677,0.30902 0.04798,0.0564 0.123988,0.0847 0.22841,0.0847 0.09031,0 0.169461,-0.0225 0.237195,-0.0677 v -0.80047 h 0.834057 v 2.18488 h -0.77463 v -0.85938 c -0.239888,0.0847 -0.464499,0.12661 -0.673343,0.12661 -0.502355,0 -0.753443,-0.29041 -0.753443,-0.87178 z m 5.34231,0 h 1.82056 v 0.63097 h -0.986503 v 1.55391 H 75.31685 Z m 6.062162,0 h 1.329118 c 0.307622,0 0.532233,0.0438 0.673344,0.13126 0.143933,0.0847 0.216007,0.22174 0.216007,0.41083 0,0.22013 -0.106143,0.37398 -0.31781,0.46147 v 0.008 c 0.112889,0.0226 0.207504,0.0805 0.283704,0.17364 0.07902,0.0931 0.118856,0.2019 0.118856,0.32608 0,0.44873 -0.303762,0.67334 -0.910539,0.67334 h -1.39268 z m 8.068758,0 h 1.045414 l 0.414962,1.27434 h 0.0041 l 0.410828,-1.27434 h 1.050065 v 2.18488 h -0.77463 l 0.02119,-1.36736 h -0.01292 l -0.448552,1.36736 H 90.66265 L 90.214099,227.282 h -0.01292 l 0.02119,1.36736 h -0.77463 z m 6.058028,0 h 0.834058 v 0.71985 h 0.613399 v -0.71985 h 0.834058 v 2.18488 h -0.834058 v -0.83406 h -0.613399 v 0.83406 h -0.834058 z m 2.742985,0 h 0.799952 v 1.13481 h 0.01292 l 0.635103,-1.13481 h 0.834052 v 2.18488 h -0.800462 v -1.16427 h -0.0124 l -0.635103,1.16427 h -0.834058 z m -16.056901,0.46612 v 0.3638 h 0.326079 c 0.160866,0 0.241329,-0.0637 0.241329,-0.19068 0,-0.11571 -0.07653,-0.17312 -0.228927,-0.17312 z m -28.134716,0.0165 c -0.225778,0 -0.35971,0.12423 -0.402043,0.37258 h 0.787549 c -0.02258,-0.24835 -0.151262,-0.37258 -0.385506,-0.37258 z m 19.685103,0 c -0.225777,0 -0.35971,0.12423 -0.402043,0.37258 h 0.787032 c -0.02258,-0.24835 -0.150745,-0.37258 -0.384989,-0.37258 z m 14.152108,0 c -0.225778,0 -0.360227,0.12423 -0.40256,0.37258 h 0.787549 c -0.02258,-0.24835 -0.150745,-0.37258 -0.384989,-0.37258 z m 6.053377,0 c -0.225777,0 -0.359709,0.12423 -0.402043,0.37258 h 0.787549 c -0.02258,-0.24835 -0.151262,-0.37258 -0.385506,-0.37258 z m -25.475964,0.0594 c -0.237067,0 -0.355534,0.18346 -0.355534,0.55035 0,0.36971 0.121091,0.55449 0.363802,0.55449 0.239888,0 0.359668,-0.1874 0.359668,-0.56276 0,-0.36124 -0.122404,-0.54208 -0.367936,-0.54208 z m 9.961149,0 c -0.237067,0 -0.356051,0.18346 -0.356051,0.55035 0,0.36971 0.121608,0.55449 0.364319,0.55449 0.239888,0 0.359668,-0.1874 0.359668,-0.56276 0,-0.36124 -0.122403,-0.54208 -0.367936,-0.54208 z m -12.615768,0.0594 c -0.21731,0 -0.325561,0.17325 -0.325561,0.52039 0,0.34995 0.111391,0.52503 0.334346,0.52503 0.220133,0 0.330213,-0.1777 0.330213,-0.5333 0,-0.34149 -0.11322,-0.51212 -0.338998,-0.51212 z m -5.261694,0.0124 c -0.242711,0 -0.364319,0.16669 -0.364319,0.49971 0,0.32737 0.12292,0.49092 0.368453,0.49092 0.242711,0 0.363802,-0.16486 0.363802,-0.49506 0,-0.3302 -0.122403,-0.49557 -0.367936,-0.49557 z m 24.65896,0 c -0.242711,0 -0.363802,0.16669 -0.363802,0.49971 0,0.32737 0.122403,0.49092 0.367936,0.49092 0.242711,0 0.364319,-0.16486 0.364319,-0.49506 0,-0.3302 -0.12292,-0.49557 -0.368453,-0.49557 z m -21.750611,0.57567 c -0.06209,0.0423 -0.192085,0.0848 -0.38964,0.12713 -0.1524,0.0339 -0.22841,0.11039 -0.22841,0.22892 0,0.0677 0.02071,0.1212 0.06305,0.16072 0.04233,0.0395 0.100255,0.0594 0.173632,0.0594 0.1524,0 0.26248,-0.0566 0.330213,-0.1695 0.03387,-0.0564 0.05116,-0.14843 0.05116,-0.27543 z m 18.728056,0.0847 v 0.43202 h 0.359668 c 0.07056,0 0.128478,-0.0199 0.173633,-0.0594 0.04798,-0.0395 0.07183,-0.0943 0.07183,-0.16485 0,-0.13829 -0.0941,-0.20774 -0.283187,-0.20774 z" /></g></svg>
