<?xml version="1.0" encoding="UTF-8" standalone="no"?>
<!-- Created with Inkscape (http://www.inkscape.org/) -->

<svg
   width="30.85393mm"
   height="7.6729169mm"
   viewBox="0 0 30.85393 7.6729169"
   version="1.1"
   id="svg1"
   xml:space="preserve"
   sodipodi:docname="planerman.svg"
   inkscape:version="1.3 (0e150ed6c4, 2023-07-21)"
   xmlns:inkscape="http://www.inkscape.org/namespaces/inkscape"
   xmlns:sodipodi="http://sodipodi.sourceforge.net/DTD/sodipodi-0.dtd"
   xmlns="http://www.w3.org/2000/svg"
   xmlns:svg="http://www.w3.org/2000/svg"><sodipodi:namedview
     id="namedview1"
     pagecolor="#ffffff"
     bordercolor="#000000"
     borderopacity="0.25"
     inkscape:showpageshadow="2"
     inkscape:pageopacity="0.0"
     inkscape:pagecheckerboard="0"
     inkscape:deskcolor="#d1d1d1"
     inkscape:document-units="mm"
     inkscape:zoom="2.2951067"
     inkscape:cx="62.524325"
     inkscape:cy="2.3964027"
     inkscape:window-width="1920"
     inkscape:window-height="1017"
     inkscape:window-x="-8"
     inkscape:window-y="-8"
     inkscape:window-maximized="1"
     inkscape:current-layer="layer1" /><defs
     id="defs1" /><g
     inkscape:label="Слой 1"
     inkscape:groupmode="layer"
     id="layer1"
     transform="translate(-9.7811856,30.425359)"><path
       id="rect1"
       style="fill:#ffffff;fill-opacity:1;stroke:none;stroke-width:0.283533;stroke-miterlimit:100;paint-order:fill markers stroke"
       d="m 9.7811856,-30.425359 v 7.672917 H 40.635116 v -7.672917 z m 1.9910924,2.075326 h 2.898014 v 3.030306 h -0.93431 v -2.286166 h -1.029394 v 2.286166 h -0.93431 z m 7.594369,0.785481 c 0.25218,0 0.454752,0.01447 0.607714,0.04341 0.152962,0.02756 0.280431,0.08613 0.382406,0.1757 0.07166,0.06201 0.128158,0.150206 0.169499,0.264583 0.04134,0.112999 0.06201,0.221175 0.06201,0.324528 v 0.96945 c 0,0.103352 0.0062,0.184657 0.0186,0.243913 0.01378,0.05788 0.04272,0.132291 0.08682,0.223242 H 19.90408 c -0.03169,-0.0565 -0.05237,-0.09922 -0.06201,-0.128158 -0.0096,-0.03032 -0.01929,-0.07717 -0.02894,-0.14056 -0.110243,0.106109 -0.219797,0.181901 -0.328662,0.227377 -0.148828,0.06063 -0.321772,0.09095 -0.518832,0.09095 -0.261826,0 -0.460954,-0.06063 -0.597379,-0.181901 -0.135048,-0.121267 -0.202572,-0.270785 -0.202572,-0.448551 0,-0.166743 0.04892,-0.303858 0.146761,-0.411345 0.09784,-0.107487 0.278365,-0.187413 0.541569,-0.239778 0.315571,-0.06339 0.52021,-0.107487 0.613916,-0.132292 0.09371,-0.02618 0.192926,-0.05995 0.297657,-0.101286 0,-0.103353 -0.02136,-0.1757 -0.06408,-0.217041 -0.04272,-0.04134 -0.117823,-0.06201 -0.225309,-0.06201 -0.137804,0 -0.241157,0.02205 -0.310059,0.06615 -0.05374,0.03445 -0.09715,0.09922 -0.130225,0.194304 l -0.804085,-0.08475 c 0.03032,-0.140559 0.07372,-0.250803 0.130225,-0.330729 0.05788,-0.0813 0.14056,-0.151584 0.248047,-0.21084 0.07717,-0.04272 0.183279,-0.07579 0.318326,-0.09922 0.135048,-0.02343 0.281121,-0.03514 0.438217,-0.03514 z m 5.878711,0 c 0.314192,0 0.562239,0.04754 0.74414,0.142627 0.181901,0.09508 0.320394,0.232889 0.415479,0.413412 0.09508,0.180523 0.142627,0.415479 0.142627,0.704866 v 0.09508 h -1.686719 c 0.01516,0.135048 0.05168,0.235645 0.109554,0.30179 0.0813,0.09508 0.187413,0.142627 0.318327,0.142627 0.08268,0 0.16123,-0.02067 0.235644,-0.06201 0.04547,-0.02618 0.0944,-0.07235 0.146761,-0.138493 l 0.82889,0.07648 c -0.126779,0.220486 -0.279742,0.378961 -0.458886,0.475423 -0.179145,0.09508 -0.43615,0.142627 -0.771013,0.142627 -0.290765,0 -0.51952,-0.04065 -0.686263,-0.121956 -0.166742,-0.08268 -0.305235,-0.212908 -0.415478,-0.390674 -0.108865,-0.179145 -0.163298,-0.389296 -0.163298,-0.630453 0,-0.34313 0.109555,-0.620806 0.328662,-0.833024 0.220486,-0.212217 0.524345,-0.318327 0.911573,-0.318327 z m 3.187402,0 c 0.293521,0 0.52021,0.112311 0.680062,0.336931 0.16123,0.22462 0.241845,0.502295 0.241845,0.833024 0,0.365179 -0.08751,0.644233 -0.262516,0.837158 -0.17501,0.191547 -0.396186,0.287321 -0.663525,0.287321 -0.129536,0 -0.248047,-0.02205 -0.355534,-0.06615 -0.106109,-0.0441 -0.201194,-0.109554 -0.285254,-0.19637 v 1.047998 h -0.849561 v -3.030306 h 0.787549 v 0.324528 c 0.108865,-0.136426 0.208773,-0.228755 0.299724,-0.276986 0.122645,-0.06477 0.258382,-0.09715 0.40721,-0.09715 z m 6.004801,0 c 0.252181,0 0.454753,0.01447 0.607715,0.04341 0.152962,0.02756 0.280431,0.08613 0.382406,0.1757 0.07166,0.06201 0.128157,0.150206 0.169498,0.264583 0.04134,0.112999 0.06201,0.221175 0.06201,0.324528 v 0.96945 c 0,0.103352 0.0062,0.184657 0.0186,0.243913 0.01378,0.05788 0.04272,0.132291 0.08682,0.223242 h -0.789616 c -0.03169,-0.0565 -0.05237,-0.09922 -0.06201,-0.128158 -0.0096,-0.03032 -0.01929,-0.07717 -0.02894,-0.14056 -0.110243,0.106109 -0.219798,0.181901 -0.328662,0.227377 -0.148828,0.06063 -0.321773,0.09095 -0.518832,0.09095 -0.261827,0 -0.460954,-0.06063 -0.597379,-0.181901 -0.135048,-0.121267 -0.202572,-0.270785 -0.202572,-0.448551 0,-0.166743 0.04892,-0.303858 0.146761,-0.411345 0.09784,-0.107487 0.278364,-0.187413 0.541569,-0.239778 0.31557,-0.06339 0.52021,-0.107487 0.613916,-0.132292 0.09371,-0.02618 0.192926,-0.05995 0.297656,-0.101286 0,-0.103353 -0.02136,-0.1757 -0.06408,-0.217041 -0.04272,-0.04134 -0.117823,-0.06201 -0.22531,-0.06201 -0.137803,0 -0.241156,0.02205 -0.310058,0.06615 -0.05374,0.03445 -0.09715,0.09922 -0.130225,0.194304 l -0.804085,-0.08475 c 0.03032,-0.140559 0.07372,-0.250803 0.130224,-0.330729 0.05788,-0.0813 0.140561,-0.151584 0.248047,-0.21084 0.07717,-0.04272 0.18328,-0.07579 0.318327,-0.09922 0.135048,-0.02343 0.28112,-0.03514 0.438216,-0.03514 z m -19.00039,0.05168 h 2.323372 v 2.193148 h -0.841292 v -1.579232 H 16.28053 v 0.91984 c 0,0.245291 -0.0503,0.427192 -0.150895,0.545704 -0.09922,0.118511 -0.252182,0.177766 -0.458887,0.177766 -0.234266,0 -0.444418,-0.02136 -0.630452,-0.06408 v -0.622185 c 0.09922,0.03032 0.175011,0.04548 0.227376,0.04548 0.112999,0 0.169499,-0.08406 0.169499,-0.252181 z m 5.684407,0 h 0.84336 v 0.750342 h 0.764811 v -0.750342 h 0.843359 v 2.193148 h -0.843359 v -0.82889 h -0.764811 v 0.82889 h -0.84336 z m 8.665104,0 h 1.00459 l 0.525033,1.260905 0.481624,-1.260905 h 1.002523 v 2.193148 h -0.711068 v -1.37666 l -0.520898,1.37666 h -0.506429 l -0.564307,-1.37666 v 1.37666 h -0.711068 z m 6.405811,0 h 0.843359 v 0.750342 h 0.764812 v -0.750342 h 0.843359 v 2.193148 h -0.843359 v -0.82889 h -0.764812 v 0.82889 h -0.843359 z m -10.911996,0.446484 c -0.133669,0 -0.240467,0.05305 -0.320393,0.159164 -0.05099,0.06615 -0.08337,0.164676 -0.09715,0.295589 h 0.82889 c -0.01654,-0.162608 -0.06063,-0.279053 -0.132292,-0.349333 -0.07028,-0.07028 -0.163298,-0.10542 -0.279053,-0.10542 z m 2.877344,0.11989 c -0.107487,0 -0.197059,0.04203 -0.268717,0.12609 -0.07166,0.08406 -0.107487,0.220487 -0.107487,0.409277 0,0.173633 0.03652,0.30248 0.109554,0.38654 0.07304,0.08406 0.165365,0.126091 0.276986,0.126091 0.09784,0 0.179834,-0.03996 0.245979,-0.11989 0.06615,-0.0813 0.09922,-0.218419 0.09922,-0.411344 0,-0.177767 -0.03445,-0.307992 -0.103353,-0.390674 -0.0689,-0.08406 -0.152962,-0.12609 -0.252181,-0.12609 z m -8.392252,0.584977 c -0.115755,0.04134 -0.236334,0.07786 -0.361735,0.109554 -0.170877,0.04547 -0.279053,0.09026 -0.324528,0.134359 -0.04685,0.04547 -0.07028,0.09715 -0.07028,0.155029 0,0.06615 0.02274,0.120578 0.06821,0.163297 0.04685,0.04134 0.115066,0.06201 0.204638,0.06201 0.09371,0 0.180523,-0.02274 0.260449,-0.06821 0.08131,-0.04547 0.138493,-0.100597 0.171566,-0.165364 0.03445,-0.06615 0.05168,-0.151585 0.05168,-0.256315 z m 15.070914,0 c -0.115755,0.04134 -0.236333,0.07786 -0.361735,0.109554 -0.170876,0.04547 -0.279052,0.09026 -0.324528,0.134359 -0.04685,0.04547 -0.07028,0.09715 -0.07028,0.155029 0,0.06615 0.02274,0.120578 0.06821,0.163297 0.04685,0.04134 0.115067,0.06201 0.204639,0.06201 0.09371,0 0.180523,-0.02274 0.260449,-0.06821 0.0813,-0.04547 0.138493,-0.100597 0.171566,-0.165364 0.03445,-0.06615 0.05168,-0.151585 0.05168,-0.256315 z" /></g></svg>
